<svg xmlns="http://www.w3.org/2000/svg" xmlns:xlink="http://www.w3.org/1999/xlink" width="500" zoomAndPan="magnify" viewBox="0 0 375 374.999991" height="500" preserveAspectRatio="xMidYMid meet" version="1.0"><defs><clipPath id="c3d3821e1e"><path d="M 140 21.796875 L 179 21.796875 L 179 114 L 140 114 Z M 140 21.796875 " clip-rule="nonzero"/></clipPath><clipPath id="8c2a9103ea"><path d="M 192 21.796875 L 231 21.796875 L 231 114 L 192 114 Z M 192 21.796875 " clip-rule="nonzero"/></clipPath><clipPath id="1802668221"><path d="M 170 328 L 201 328 L 201 353.296875 L 170 353.296875 Z M 170 328 " clip-rule="nonzero"/></clipPath></defs><path fill="#f5b80d" d="M 142.359375 198.242188 C 135.902344 178.203125 148.480469 146.921875 177.757812 138.796875 C 156.386719 139.796875 128.667969 162.398438 137.125 199.246094 C 134.230469 200.136719 131.226562 201.136719 128.332031 202.027344 C 122.433594 186.441406 124.4375 160.503906 144.25 141.691406 C 163.621094 123.324219 194.347656 120.207031 216.609375 134.453125 C 240.878906 149.929688 249.226562 177.089844 242.660156 200.359375 C 209.484375 190.339844 175.976562 189.449219 142.359375 198.242188 Z M 142.359375 198.242188 " fill-opacity="1" fill-rule="nonzero"/><path fill="#f5b80d" d="M 121.652344 146.921875 C 96.605469 131.449219 71.445312 115.976562 45.730469 100.054688 C 52.632812 90.929688 59.199219 82.355469 65.992188 73.449219 C 87.476562 94.492188 108.628906 115.195312 129.667969 135.789062 C 126.996094 139.6875 124.4375 143.136719 121.652344 146.921875 Z M 121.652344 146.921875 " fill-opacity="1" fill-rule="nonzero"/><path fill="#f5b80d" d="M 33.375 125.105469 C 60.757812 137.238281 88.035156 149.261719 115.308594 161.285156 C 114.304688 165.292969 113.304688 169.074219 112.300781 173.195312 C 83.136719 167.964844 53.859375 162.84375 24.691406 157.609375 C 24.46875 151.488281 29.03125 134.230469 33.375 125.105469 Z M 33.375 125.105469 " fill-opacity="1" fill-rule="nonzero"/><path fill="#f5b80d" d="M 87.476562 55.195312 C 96.605469 49.515625 105.398438 44.0625 114.527344 38.382812 C 127.332031 65.433594 139.6875 91.820312 152.265625 118.3125 C 148.371094 120.652344 144.917969 122.878906 141.246094 125.105469 C 123.433594 102.058594 105.734375 79.015625 87.476562 55.195312 Z M 87.476562 55.195312 " fill-opacity="1" fill-rule="nonzero"/><path fill="#f5b80d" d="M 218.390625 118.089844 C 230.75 91.484375 242.992188 65.210938 255.460938 38.273438 C 264.589844 43.949219 273.496094 49.515625 282.625 55.195312 C 264.480469 78.90625 246.777344 101.949219 229.078125 125.105469 C 225.628906 122.765625 222.175781 120.539062 218.390625 118.089844 Z M 218.390625 118.089844 " fill-opacity="1" fill-rule="nonzero"/><g clip-path="url(#c3d3821e1e)"><path fill="#f5b80d" d="M 178.316406 110.855469 C 174.195312 111.632812 170.300781 112.523438 166.183594 113.304688 C 157.609375 85.140625 148.925781 56.976562 140.132812 28.140625 C 150.261719 26.027344 160.394531 24.023438 170.96875 21.90625 C 173.417969 51.964844 175.867188 81.242188 178.316406 110.855469 Z M 178.316406 110.855469 " fill-opacity="1" fill-rule="nonzero"/></g><g clip-path="url(#8c2a9103ea)"><path fill="#f5b80d" d="M 204.253906 113.191406 C 200.359375 112.414062 196.574219 111.746094 192.34375 110.855469 C 194.570312 81.355469 196.90625 51.964844 199.246094 21.796875 C 209.597656 23.800781 219.726562 25.804688 230.082031 27.808594 C 221.285156 56.640625 212.824219 84.917969 204.253906 113.191406 Z M 204.253906 113.191406 " fill-opacity="1" fill-rule="nonzero"/></g><path fill="#f5b80d" d="M 248.78125 146.476562 C 246.109375 142.914062 243.660156 139.464844 240.878906 135.789062 C 261.695312 115.195312 282.511719 94.714844 303.664062 73.894531 C 307.117188 78.347656 310.457031 82.578125 313.683594 86.921875 C 317.132812 91.707031 316.800781 91.597656 313.683594 96.382812 C 310.566406 101.167969 308.117188 106.402344 305.335938 111.300781 C 305 111.96875 304.554688 112.746094 303.886719 113.082031 C 285.964844 123.992188 267.929688 134.898438 250.007812 145.699219 C 249.671875 146.03125 249.226562 146.253906 248.78125 146.476562 Z M 248.78125 146.476562 " fill-opacity="1" fill-rule="nonzero"/><path fill="#f5b80d" d="M 299.101562 142.136719 C 299.101562 148.816406 299.101562 154.9375 299.101562 161.171875 C 295.761719 161.953125 292.53125 162.175781 289.636719 163.289062 C 284.960938 165.179688 280.507812 167.628906 275.945312 169.855469 C 275.167969 170.1875 274.386719 170.746094 273.496094 170.855469 C 268.488281 171.746094 263.367188 172.527344 258.132812 173.417969 C 257.019531 169.410156 256.019531 165.292969 254.792969 161.0625 C 269.601562 154.828125 284.292969 148.59375 299.101562 142.136719 Z M 299.101562 142.136719 " fill-opacity="1" fill-rule="nonzero"/><path fill="#71a53a" d="M 328.488281 233.53125 C 331.605469 207.59375 320.25 193.234375 303.21875 187.890625 C 306.226562 190.785156 309.789062 193.902344 312.90625 197.574219 C 316.023438 201.25 318.582031 205.367188 321.699219 209.707031 C 315.578125 209.597656 310.34375 208.039062 306.003906 204.476562 C 303.554688 202.472656 301.214844 200.136719 299.210938 197.574219 C 293.757812 190.785156 287.523438 185.105469 278.617188 183.101562 C 294.3125 171.523438 320.695312 175.199219 330.605469 197.019531 C 330.714844 195.570312 330.828125 194.570312 330.9375 193.566406 C 332.832031 178.09375 332.71875 162.621094 332.386719 147.144531 C 332.386719 145.585938 331.941406 144.695312 330.492188 143.804688 C 321.808594 138.238281 318.582031 129.78125 318.582031 119.871094 C 318.582031 118.648438 318.691406 117.421875 318.804688 115.863281 C 321.253906 118.871094 323.480469 121.542969 325.816406 124.324219 C 325.929688 124.214844 326.039062 124.214844 326.261719 124.101562 C 325.59375 122.210938 324.371094 120.207031 324.480469 118.3125 C 324.59375 114.195312 324.59375 109.742188 325.816406 105.84375 C 327.933594 99.5 330.9375 93.488281 334.054688 87.367188 C 339.957031 99.164062 348.640625 110.296875 342.515625 125.105469 C 344.855469 122.097656 347.191406 119.09375 349.53125 116.199219 C 351.644531 126.105469 346.746094 138.460938 338.0625 143.695312 C 336.726562 144.585938 336.28125 145.363281 336.28125 146.8125 C 336.28125 158.722656 336.171875 170.523438 336.171875 182.433594 C 336.171875 189.894531 336.171875 197.351562 336.171875 204.699219 C 336.503906 204.699219 336.726562 204.8125 337.0625 204.8125 C 337.730469 203.585938 338.398438 202.363281 339.066406 201.136719 C 342.960938 194.125 348.417969 188.667969 354.871094 184.105469 C 357.765625 182.101562 360.4375 179.875 363.222656 177.648438 C 367.898438 173.863281 370.570312 168.851562 372.015625 163.175781 C 372.128906 162.730469 372.351562 162.285156 372.796875 161.0625 C 374.910156 179.207031 374.800781 196.460938 368.566406 213.046875 C 364.667969 223.402344 357.765625 230.972656 346.746094 234.089844 C 346.300781 234.199219 345.746094 234.3125 345.078125 234.535156 C 350.199219 222.066406 351.757812 208.371094 360.214844 197.464844 C 359.882812 197.242188 359.660156 197.019531 359.324219 196.90625 C 356.097656 200.691406 352.644531 204.367188 349.640625 208.371094 C 343.183594 217.277344 340.066406 227.410156 339.511719 238.320312 C 338.621094 254.683594 338.285156 271.046875 337.285156 287.300781 C 336.058594 307.339844 334.390625 327.488281 332.941406 347.527344 C 332.941406 347.972656 332.71875 348.417969 332.273438 348.75 C 332.050781 344.1875 331.828125 339.621094 331.605469 335.058594 C 330.714844 316.023438 329.9375 296.984375 328.710938 277.949219 C 327.933594 266.484375 326.039062 255.128906 319.917969 244.886719 C 315.464844 237.429688 309.34375 231.640625 301.882812 226.851562 C 310.679688 236.761719 314.019531 249.449219 319.917969 261.25 C 312.015625 260.25 305.222656 257.132812 300.324219 251.230469 C 297.320312 247.667969 294.535156 243.550781 292.753906 239.210938 C 288.078125 228.1875 283.847656 217.054688 274.277344 208.816406 C 292.53125 204.253906 315.019531 214.273438 328.488281 233.53125 Z M 328.488281 233.53125 " fill-opacity="1" fill-rule="nonzero"/><path fill="#71a53a" d="M 268.152344 222.734375 C 261.472656 221.84375 255.574219 220.953125 249.785156 220.285156 C 224.179688 217.167969 198.910156 218.28125 174.085938 225.960938 C 172.527344 226.40625 170.632812 226.40625 169.1875 225.960938 C 148.257812 219.726562 126.996094 215.71875 105.289062 213.9375 C 87.476562 212.378906 69.554688 211.824219 51.742188 212.9375 C 35.15625 213.9375 19.015625 217.167969 3.09375 221.621094 C 2.203125 221.84375 1.425781 221.953125 0.0898438 222.289062 C 0.0898438 220.730469 0.0898438 219.394531 0.0898438 218.058594 C 0.0898438 204.8125 0.0898438 191.453125 0.199219 178.203125 C 0.199219 177.203125 0.867188 176.089844 1.535156 175.308594 C 2.761719 173.972656 4.320312 172.859375 5.542969 171.746094 C 11.554688 173.417969 11.445312 177.980469 10.886719 182.992188 C 17.011719 182.65625 22.910156 182.433594 28.921875 182.101562 C 29.144531 179.429688 28.921875 176.644531 29.8125 174.195312 C 30.367188 172.636719 32.707031 171.636719 33.929688 170.632812 C 39.71875 172.414062 39.832031 176.757812 38.941406 181.765625 C 45.285156 181.765625 51.1875 181.765625 57.53125 181.765625 C 56.753906 177.648438 57.421875 173.863281 62.875 172.082031 C 64.097656 173.195312 66.4375 174.53125 67.328125 176.421875 C 68.21875 178.203125 67.550781 180.765625 67.550781 182.992188 C 73.5625 183.660156 79.128906 184.214844 85.027344 184.882812 C 85.027344 183.214844 84.917969 181.878906 85.027344 180.429688 C 85.140625 179.652344 85.472656 178.648438 86.140625 178.316406 C 87.476562 177.425781 89.703125 175.867188 90.484375 176.3125 C 92.710938 177.648438 95.378906 179.207031 94.714844 182.769531 C 94.492188 183.882812 94.714844 185.105469 94.714844 186.332031 C 99.609375 187.222656 104.285156 188 108.960938 188.78125 C 112.859375 189.449219 112.859375 189.449219 112.859375 193.234375 C 112.859375 193.902344 112.859375 194.457031 112.859375 195.347656 C 106.734375 194.457031 100.835938 193.566406 94.824219 192.675781 C 94.824219 197.6875 94.824219 202.25 94.824219 206.925781 C 101.058594 208.039062 107.179688 209.152344 113.304688 210.265625 C 117.199219 211.042969 120.984375 212.046875 124.882812 212.824219 C 126.21875 213.046875 127.777344 213.046875 129 212.601562 C 151.710938 204.699219 175.199219 201.027344 199.132812 202.25 C 219.058594 203.363281 238.542969 206.8125 257.242188 213.9375 C 261.585938 215.71875 264.367188 219.058594 268.152344 222.734375 Z M 11 189.449219 C 11 195.347656 11 200.914062 11 206.480469 C 17.011719 205.8125 22.910156 205.253906 28.808594 204.589844 C 28.808594 199.246094 28.808594 194.011719 28.808594 188.558594 C 22.910156 188.890625 17.121094 189.113281 11 189.449219 Z M 57.308594 188.78125 C 51.1875 188.78125 45.285156 188.78125 39.273438 188.78125 C 39.273438 193.566406 39.273438 198.578125 39.273438 203.585938 C 45.398438 203.585938 51.296875 203.585938 57.308594 203.585938 C 57.308594 198.6875 57.308594 194.011719 57.308594 188.78125 Z M 67.550781 204.253906 C 73.449219 204.699219 79.015625 205.144531 84.804688 205.589844 C 84.804688 200.691406 84.804688 196.238281 84.804688 191.339844 C 79.015625 190.671875 73.449219 190.117188 67.550781 189.449219 C 67.550781 194.570312 67.550781 199.246094 67.550781 204.253906 Z M 67.550781 204.253906 " fill-opacity="1" fill-rule="nonzero"/><path fill="#71a53a" d="M 118.980469 340.625 C 148.816406 276.28125 222.734375 253.902344 271.492188 275.613281 C 264.480469 276.613281 257.132812 277.28125 249.894531 278.839844 C 209.597656 287.410156 179.652344 309.898438 160.171875 346.191406 C 159.28125 347.859375 158.722656 350.421875 157.277344 351.089844 C 155.828125 351.757812 153.492188 350.753906 151.597656 350.308594 C 140.578125 347.859375 129.667969 344.964844 118.980469 340.625 Z M 118.980469 340.625 " fill-opacity="1" fill-rule="nonzero"/><path fill="#71a53a" d="M 232.753906 260.472656 C 175.421875 259.359375 134.898438 286.074219 107.625 335.167969 C 103.730469 334.390625 80.574219 319.917969 76.234375 315.355469 C 92.710938 289.414062 114.972656 270.824219 144.25 261.140625 C 173.640625 251.34375 203.140625 250.007812 232.753906 260.472656 Z M 232.753906 260.472656 " fill-opacity="1" fill-rule="nonzero"/><path fill="#71a53a" d="M 39.386719 277.726562 C 85.695312 240.65625 136.457031 229.859375 192.789062 246.445312 C 168.074219 245.554688 144.140625 249.5625 121.542969 260.027344 C 98.71875 270.492188 80.6875 286.742188 64.878906 307.117188 C 56.308594 297.207031 48.070312 287.632812 39.386719 277.726562 Z M 39.386719 277.726562 " fill-opacity="1" fill-rule="nonzero"/><path fill="#71a53a" d="M 31.257812 265.148438 C 25.246094 254.238281 20.796875 242.992188 17.234375 230.859375 C 58.867188 218.835938 99.945312 220.285156 141.023438 232.53125 C 101.058594 231.195312 64.878906 242.992188 31.257812 265.148438 Z M 31.257812 265.148438 " fill-opacity="1" fill-rule="nonzero"/><path fill="#71a53a" d="M 190.671875 230.972656 C 196.351562 230.082031 202.027344 228.855469 207.816406 228.300781 C 228.632812 226.183594 249.226562 227.855469 269.488281 233.53125 C 273.496094 234.644531 276.167969 236.203125 277.394531 240.769531 C 280.0625 250.453125 284.851562 259.023438 293.3125 265.035156 C 295.761719 266.707031 298.320312 268.152344 300.992188 269.824219 C 300.4375 271.269531 299.769531 272.828125 299.101562 274.5 C 263.699219 258.46875 228.410156 242.214844 190.785156 231.863281 C 190.671875 231.527344 190.671875 231.195312 190.671875 230.972656 Z M 190.671875 230.972656 " fill-opacity="1" fill-rule="nonzero"/><path fill="#71a53a" d="M 259.46875 336.503906 C 256.351562 327.820312 256.6875 319.472656 259.359375 311.234375 C 259.582031 310.566406 260.695312 309.789062 261.472656 309.789062 C 271.714844 309.007812 281.175781 311.125 289.859375 317.46875 C 280.507812 324.925781 270.492188 331.050781 259.46875 336.503906 Z M 259.46875 336.503906 " fill-opacity="1" fill-rule="nonzero"/><path fill="#71a53a" d="M 254.683594 338.84375 C 249.785156 340.847656 244.886719 342.960938 239.878906 344.855469 C 239.320312 345.078125 238.207031 344.519531 237.652344 343.964844 C 231.195312 338.84375 226.742188 332.386719 224.738281 324.035156 C 230.304688 320.917969 236.425781 320.25 242.769531 321.03125 C 243.773438 321.140625 244.773438 321.363281 245.664062 321.585938 C 252.566406 323.367188 252.457031 323.367188 253.125 330.382812 C 253.347656 333.164062 254.125 335.835938 254.683594 338.84375 Z M 254.683594 338.84375 " fill-opacity="1" fill-rule="nonzero"/><path fill="#71a53a" d="M 199.578125 344.855469 C 205.257812 337.0625 212.492188 333.609375 221.621094 334.5 C 222.621094 334.613281 223.957031 335.503906 224.515625 336.394531 C 226.964844 339.957031 229.078125 343.628906 231.640625 347.75 C 224.402344 349.085938 217.054688 350.421875 209.597656 351.644531 C 208.816406 351.757812 207.703125 351.089844 206.925781 350.644531 C 204.476562 348.75 202.140625 346.859375 199.578125 344.855469 Z M 199.578125 344.855469 " fill-opacity="1" fill-rule="nonzero"/><path fill="#71a53a" d="M 294.3125 313.90625 C 293.089844 300.660156 295.648438 289.082031 301.550781 277.726562 C 306.113281 282.511719 310.457031 287.078125 315.132812 292.085938 C 308.230469 299.324219 301.550781 306.335938 294.3125 313.90625 Z M 294.3125 313.90625 " fill-opacity="1" fill-rule="nonzero"/><path fill="#71a53a" d="M 275.167969 278.285156 C 281.621094 283.515625 287.078125 288.96875 290.304688 295.984375 C 290.972656 297.542969 291.195312 299.433594 291.195312 301.105469 C 291.085938 305 290.75 308.785156 290.527344 312.347656 C 286.742188 310.789062 282.734375 309.230469 278.839844 307.5625 C 278.285156 307.339844 277.726562 306.671875 277.617188 306.003906 C 275.390625 297.097656 274.832031 288.078125 275.167969 278.285156 Z M 275.167969 278.285156 " fill-opacity="1" fill-rule="nonzero"/><path fill="#71a53a" d="M 252.902344 320.695312 C 249.671875 319.804688 246.332031 319.027344 243.105469 318.023438 C 241.992188 317.691406 240.878906 316.800781 240.324219 315.800781 C 235.871094 308.117188 233.308594 299.769531 231.195312 291.195312 C 231.417969 290.972656 231.640625 290.75 231.75 290.417969 C 235.648438 292.976562 239.878906 295.09375 243.328125 298.097656 C 246.554688 300.992188 249.003906 304.667969 251.898438 308.007812 C 255.351562 312.125 254.792969 316.464844 252.902344 320.695312 Z M 252.902344 320.695312 " fill-opacity="1" fill-rule="nonzero"/><g clip-path="url(#1802668221)"><path fill="#71a53a" d="M 170.1875 353.203125 C 173.417969 343.742188 178.871094 336.28125 185.441406 328.488281 C 185.105469 340.289062 191.5625 347.191406 200.582031 352.535156 C 200.46875 352.757812 200.46875 352.980469 200.359375 353.203125 C 190.449219 353.203125 180.542969 353.203125 170.1875 353.203125 Z M 170.1875 353.203125 " fill-opacity="1" fill-rule="nonzero"/></g><path fill="#71a53a" d="M 212.601562 303.886719 C 219.28125 308.898438 227.074219 311.679688 231.304688 318.914062 C 228.855469 320.140625 226.519531 321.476562 224.070312 322.476562 C 222.511719 323.144531 222.175781 324.148438 222.511719 325.707031 C 222.84375 327.597656 223.066406 329.378906 223.402344 331.382812 C 220.285156 331.605469 217.945312 331.273438 215.832031 328.265625 C 210.375 320.808594 210.265625 312.792969 212.601562 303.886719 Z M 212.601562 303.886719 " fill-opacity="1" fill-rule="nonzero"/><path fill="#71a53a" d="M 252.457031 283.960938 C 261.363281 289.75 267.929688 296.984375 271.9375 306.671875 C 266.59375 307.339844 261.25 306.335938 256.910156 310.011719 C 254.460938 305.78125 252.679688 295.648438 252.457031 283.960938 Z M 252.457031 283.960938 " fill-opacity="1" fill-rule="nonzero"/><path fill="#71a53a" d="M 196.574219 343.964844 C 191.339844 341.179688 187.554688 334.054688 188 326.261719 C 195.683594 326.484375 202.695312 328.378906 207.257812 332.941406 C 203.699219 336.617188 200.246094 340.179688 196.574219 343.964844 Z M 196.574219 343.964844 " fill-opacity="1" fill-rule="nonzero"/><path fill="#71a53a" d="M 313.128906 141.914062 C 316.578125 144.472656 320.25 147.367188 324.148438 149.929688 C 328.933594 153.046875 331.050781 157.609375 331.605469 163.066406 C 319.695312 163.066406 312.238281 154.269531 313.128906 141.914062 Z M 313.128906 141.914062 " fill-opacity="1" fill-rule="nonzero"/><path fill="#71a53a" d="M 355.429688 141.914062 C 355.652344 155.496094 349.085938 162.507812 337.171875 163.289062 C 337.730469 157.5 340.066406 152.824219 345.078125 149.484375 C 348.75 147.144531 352.089844 144.363281 355.429688 141.914062 Z M 355.429688 141.914062 " fill-opacity="1" fill-rule="nonzero"/><path fill="#71a53a" d="M 312.570312 160.28125 C 316.132812 162.730469 319.804688 165.292969 323.480469 167.742188 C 328.265625 170.855469 330.492188 175.308594 331.273438 180.875 C 318.804688 179.09375 312.792969 172.304688 312.570312 160.28125 Z M 312.570312 160.28125 " fill-opacity="1" fill-rule="nonzero"/><path fill="#71a53a" d="M 356.207031 160.28125 C 354.871094 173.417969 349.308594 180.320312 337.394531 180.542969 C 338.175781 174.417969 341.402344 170.078125 346.746094 166.960938 C 350.085938 164.957031 353.203125 162.507812 356.207031 160.28125 Z M 356.207031 160.28125 " fill-opacity="1" fill-rule="nonzero"/><path fill="#71a53a" d="M 208.707031 307.226562 C 208.707031 313.128906 208.707031 318.582031 208.707031 323.8125 C 206.035156 322.921875 202.917969 321.921875 199.246094 320.808594 C 199.578125 321.140625 199.46875 321.03125 199.355469 320.917969 C 197.351562 316.464844 199.246094 313.460938 203.140625 311.234375 C 205.035156 310.121094 206.703125 308.675781 208.707031 307.226562 Z M 208.707031 307.226562 " fill-opacity="1" fill-rule="nonzero"/><path fill="#f5b80d" d="M 257.464844 197.351562 C 257.578125 196.128906 257.800781 194.902344 258.023438 193.457031 C 261.585938 193.902344 265.035156 194.234375 268.375 194.570312 C 264.925781 196.683594 262.03125 200.246094 257.464844 197.351562 Z M 257.464844 197.351562 " fill-opacity="1" fill-rule="nonzero"/></svg>